<svg id="OUTLINE" xmlns="http://www.w3.org/2000/svg" viewBox="0 0 680 170"><defs><style>.cls-1{fill:#fff;}.cls-2{fill:#f8991d;}</style></defs><title>AWS-Prototyping_Logo_White</title><path class="cls-1" d="M310.11,99.58v-51h3.6l.36,4a24.78,24.78,0,0,1,6.44-3.89A17.51,17.51,0,0,1,327,47.45a13.4,13.4,0,0,1,11,5c2.68,3.33,4,7.91,4,13.71s-1.42,10.61-4.25,14.12a14,14,0,0,1-11.45,5.25,17.75,17.75,0,0,1-12.1-4.89V99.58ZM326.17,51.2q-6,0-12,4.6V76.9A22.46,22.46,0,0,0,320,80.61a15,15,0,0,0,5.9,1.19q5.89,0,8.89-3.85t3-11.49Q337.76,51.21,326.17,51.2Z"/><path class="cls-1" d="M351.37,84.75V48.53H355l.43,5.26a18.1,18.1,0,0,1,5.36-4.29,13.7,13.7,0,0,1,5.94-1.25,25.22,25.22,0,0,1,3,.21v3.67c-1.25-.09-2.38-.14-3.39-.14a13.54,13.54,0,0,0-5.87,1.22,15.69,15.69,0,0,0-4.93,4V84.75Z"/><path class="cls-1" d="M390.25,85.83q-7.92,0-12.32-5.08t-4.39-14.14q0-9.07,4.39-14.12t12.32-5q7.92,0,12.31,5T407,66.61q0,9.06-4.39,14.14T390.25,85.83Zm0-3.75q12.45,0,12.45-15.47T390.25,51.2q-12.47,0-12.46,15.41T390.25,82.08Z"/><path class="cls-1" d="M434,84a19.47,19.47,0,0,1-7.27,1.22q-4.25,0-6.48-2.27T418,76.33V52.13h-6.77V49.25l6.91-.64L418.76,38h3.38V48.53h11.52v3.6H422.14v24c0,2,.42,3.36,1.26,4.18a6,6,0,0,0,4.21,1.22,26.8,26.8,0,0,0,6.41-.86Z"/><path class="cls-1" d="M455.77,85.83q-7.92,0-12.31-5.08t-4.4-14.14q0-9.07,4.4-14.12t12.31-5q7.92,0,12.31,5t4.39,14.12q0,9.06-4.39,14.14T455.77,85.83Zm0-3.75q12.45,0,12.45-15.47T455.77,51.2q-12.47,0-12.46,15.41T455.77,82.08Z"/><path class="cls-1" d="M499.54,84a19.47,19.47,0,0,1-7.27,1.22q-4.25,0-6.48-2.27t-2.23-6.58V52.13h-6.77V49.25l6.91-.64L484.28,38h3.38V48.53h11.52v3.6H487.66v24c0,2,.42,3.36,1.26,4.18a6,6,0,0,0,4.21,1.22,26.8,26.8,0,0,0,6.41-.86Z"/><path class="cls-1" d="M517.11,85.11,502.28,48.53h4.46l12.32,31.9,12.45-31.9h4.32L518.19,92.38a15.14,15.14,0,0,1-4,6.23,8.8,8.8,0,0,1-5.76,1.84,10.65,10.65,0,0,1-4.39-.87V96.34a18.17,18.17,0,0,0,4.1.43A5.56,5.56,0,0,0,512,95.55a11.77,11.77,0,0,0,2.7-4.39Z"/><path class="cls-1" d="M542.17,99.58v-51h3.6l.36,4a24.46,24.46,0,0,1,6.44-3.89A17.5,17.5,0,0,1,559,47.45a13.38,13.38,0,0,1,11,5c2.69,3.33,4,7.91,4,13.71s-1.41,10.61-4.25,14.12a13.94,13.94,0,0,1-11.44,5.25,17.75,17.75,0,0,1-12.1-4.89V99.58ZM558.22,51.2q-6,0-12,4.6V76.9A22.59,22.59,0,0,0,552,80.61a15,15,0,0,0,5.9,1.19q5.91,0,8.9-3.85t3-11.49Q569.81,51.21,558.22,51.2Z"/><path class="cls-1" d="M585.8,40.76a3,3,0,0,1-2.27-.87,3.6,3.6,0,0,1,0-4.6,3.4,3.4,0,0,1,4.54,0,3.64,3.64,0,0,1,0,4.6A3,3,0,0,1,585.8,40.76Zm-2.09,44V48.53h4.1V84.75Z"/><path class="cls-1" d="M625,84.75V60.12q0-4.66-1.8-6.8t-5.76-2.12a24.85,24.85,0,0,0-14,4.6v29h-4.11V48.53h3.6l.44,4.18a29.57,29.57,0,0,1,7.41-3.89,22.75,22.75,0,0,1,7.56-1.37c3.5,0,6.18.93,8,2.77s2.77,4.58,2.77,8.18V84.75Z"/><path class="cls-1" d="M665.72,79.42A21.86,21.86,0,0,1,659.81,83a16.74,16.74,0,0,1-6.19,1.3,13.81,13.81,0,0,1-11.09-4.94q-4.17-4.92-4.17-13.06,0-8.72,4.14-13.76a13.8,13.8,0,0,1,11.27-5,17.25,17.25,0,0,1,12,4.83l.43-3.75h3.6V83.09q0,8.5-4.32,12.93T653,100.45a23.71,23.71,0,0,1-11.73-2.74V94.33a31.56,31.56,0,0,0,11.52,2.37q6.69,0,9.82-3.31T665.72,83ZM654.56,80.5q5.4,0,11.16-4.61v-20A22.62,22.62,0,0,0,660,52.31a15.39,15.39,0,0,0-5.83-1.11q-5.76,0-8.68,3.74T642.61,66c0,4.7,1,8.29,3.06,10.76S650.67,80.5,654.56,80.5Z"/><path class="cls-1" d="M221.64,88.39a56.77,56.77,0,0,1-12.85-1.46,37.16,37.16,0,0,1-9.63-3.36,4.83,4.83,0,0,1-3.06-4.67V74.67c0-1.75.63-2.63,1.89-2.63a4.64,4.64,0,0,1,1.54.29c.53.2,1.24.49,2.11.88a44.41,44.41,0,0,0,9.2,2.92,49.23,49.23,0,0,0,9.93,1q7.88,0,12.18-2.77a8.86,8.86,0,0,0,4.31-7.89A8.07,8.07,0,0,0,235,60.65q-2.26-2.32-8.4-4.38l-12.11-3.79Q205.3,49.56,201.13,44A19.75,19.75,0,0,1,197,31.9a18.53,18.53,0,0,1,2.26-9.27,22.35,22.35,0,0,1,6-6.86,26.25,26.25,0,0,1,8.68-4.31A37.18,37.18,0,0,1,224.41,10a43.15,43.15,0,0,1,5.63.37c1.89.24,3.69.56,5.39.94s3.29.83,4.75,1.32a20.9,20.9,0,0,1,3.5,1.46,8,8,0,0,1,2.49,2,4.75,4.75,0,0,1,.72,2.78v3.94c0,1.75-.63,2.62-1.89,2.62a8.8,8.8,0,0,1-3.21-1,38.84,38.84,0,0,0-16.06-3.21q-7.15,0-11.1,2.34c-2.62,1.55-3.94,4-3.94,7.44a7.91,7.91,0,0,0,2.48,5.91q2.49,2.41,9.2,4.6l11.82,3.8q9.06,2.93,12.92,8A18.79,18.79,0,0,1,251,65a21.09,21.09,0,0,1-2.19,9.71,22.06,22.06,0,0,1-6.06,7.37,26.87,26.87,0,0,1-9.27,4.67,41.35,41.35,0,0,1-11.82,1.61M114.49,86.2a5.22,5.22,0,0,1-3.21-.8,6.59,6.59,0,0,1-1.75-3.29L90,17.59a14.62,14.62,0,0,1-.73-3.36,1.8,1.8,0,0,1,2-2h8.18a5.18,5.18,0,0,1,3.28.8,7,7,0,0,1,1.68,3.29l14,55.18,13-55.18A5.84,5.84,0,0,1,133,13a5.53,5.53,0,0,1,3.36-.8h6.72a5.51,5.51,0,0,1,3.35.8,5.9,5.9,0,0,1,1.61,3.29l13.14,55.91,14.45-55.91A6.86,6.86,0,0,1,177.34,13a5.16,5.16,0,0,1,3.28-.8h7.74a1.8,1.8,0,0,1,2,2,7.43,7.43,0,0,1-.14,1.32,19.13,19.13,0,0,1-.59,2L169.53,82.11a6.59,6.59,0,0,1-1.75,3.29,5.28,5.28,0,0,1-3.22.8h-7.15a5.11,5.11,0,0,1-3.36-.88,6.32,6.32,0,0,1-1.6-3.35l-13-53.72L126.61,82A6.31,6.31,0,0,1,125,85.32a5.09,5.09,0,0,1-3.35.88Zm-67-9a26.87,26.87,0,0,0,8.61-1.53A18.22,18.22,0,0,0,64,70.29,13.12,13.12,0,0,0,66.83,65a27.94,27.94,0,0,0,.81-7.23v-3.5A72.66,72.66,0,0,0,60,52.85a62.06,62.06,0,0,0-7.81-.52q-8.32,0-12.41,3.36t-4.08,9.63c0,3.9,1,6.84,3.06,8.84s5,3,8.76,3m33.87-12.7a23.35,23.35,0,0,0,1,7.44,38.52,38.52,0,0,0,2.7,6,3.94,3.94,0,0,1,.58,1.9A3.21,3.21,0,0,1,84,82.26l-5.25,3.5a4.16,4.16,0,0,1-2.19.73,3.48,3.48,0,0,1-2.48-1.17,18.57,18.57,0,0,1-3-3.86q-1.25-2.11-2.56-4.89Q58.73,88.11,44,88.1q-10.52,0-16.64-6t-6.14-16q0-10.66,7.6-17.16t20.43-6.49a63.59,63.59,0,0,1,8.83.65q4.6.66,9.57,1.83V38.76q0-9.49-4-13.36T50.12,21.53a38.74,38.74,0,0,0-9,1.1,65.47,65.47,0,0,0-9,2.84,22.14,22.14,0,0,1-2.92,1.1,6.35,6.35,0,0,1-1.31.22c-1.17,0-1.75-.88-1.75-2.63V20.07a5.49,5.49,0,0,1,.58-2.92A6.13,6.13,0,0,1,29.1,15.4a54.39,54.39,0,0,1,10.51-3.79A51.14,51.14,0,0,1,52.6,10q14.9,0,21.82,6.79T81.36,37.3Z"/><path class="cls-2" d="M237.42,129C210,149.22,170.14,160,135.85,160c-48,0-91.32-17.76-124.07-47.33-2.57-2.32-.28-5.49,2.81-3.69,35.33,20.55,79,32.94,124.15,32.94a247,247,0,0,0,94.69-19.38c4.64-2,8.53,3.06,4,6.41"/><path class="cls-2" d="M248.85,115.91c-3.52-4.5-23.22-2.13-32.08-1.07-2.68.32-3.09-2-.68-3.72,15.72-11,41.48-7.86,44.48-4.16s-.8,29.56-15.53,41.88c-2.26,1.9-4.42.88-3.41-1.62,3.31-8.28,10.73-26.81,7.22-31.31"/></svg>