<?xml version="1.0" standalone="no"?><!DOCTYPE svg PUBLIC "-//W3C//DTD SVG 1.1//EN" "http://www.w3.org/Graphics/SVG/1.1/DTD/svg11.dtd"><svg t="1587992250039" class="icon" viewBox="0 0 1024 1024" version="1.1" xmlns="http://www.w3.org/2000/svg" p-id="2057" xmlns:xlink="http://www.w3.org/1999/xlink" width="200" height="200"><defs><style type="text/css"></style></defs><path fill="#FF0000" d="M190.967018 0H832.673684c19.731462 6.048187 35.121404 22.066901 41.618714 41.498947v940.223626c-5.868538 19.911111-21.85731 35.660351-41.409123 42.277427H191.476023C171.834386 1017.861988 156.115088 1002.172632 149.707602 982.65076V41.828304C155.785731 22.186667 171.534971 6.527251 190.967018 0m7.245847 21.707602c-16.73731 2.36538-28.324678 18.71345-27.486315 35.151345 0.029942 303.427368 0.059883 606.884678 0 910.312047-1.227602 18.473918 13.892865 35.929825 32.726082 35.690293 202.614269 0.359298 405.25848-0.059883 607.90269 0.20959 10.569357 0.029942 22.126784-1.018012 30.510409-8.203976 8.922573-7.395556 11.347836-19.581754 11.317895-30.630176-0.029942-298.397193 0.029942-596.794386 0-895.191579 0.509006-13.773099 0.568889-30.151111-11.168187-39.672514C830.487953 18.803275 813.810526 20.989006 799.438596 20.959064c-187.613567 0.089825-375.227135-0.059883-562.870643 0.059883-12.785029 0.119766-25.659883-0.958129-38.355088 0.688655z" p-id="2058"></path><path fill="#FF0000" d="M485.861053 198.212865c21.498012-13.623392 57.936842-7.724912 67.398362 18.29427 8.353684 24.522105 5.688889 50.661053 4.072047 75.991578 44.672749-1.467135 89.764678-0.029942 133.808655 8.26386 28.773801 6.048187 58.565614 14.97076 80.54269 35.480702 21.947135 22.186667 32.366784 52.786901 38.654503 82.698479 10.449591 54.493567 7.036257 110.903392-4.790643 164.887954-4.52117 21.617778-18.294269 40.421053-35.989708 53.265965-27.097076 19.761404-60.092632 29.163041-92.579181 35.630409-40.989942 7.305731-82.788304 9.221988-124.347135 7.814737-0.239532 42.606784 0 85.243509-0.059883 127.850292 0.119766 18.593684-8.174035 38.953918-25.98924 46.948304-16.916959 7.455439-41.049825 7.844678-52.727017-8.802807-12.904795-18.084678-8.293801-41.289357-9.461521-62.008889-1.796491-35.211228-2.515088-70.512281-4.101988-105.723508-31.678129 1.467135-63.41614 1.946199-95.034386-0.17965-26.528187-2.515088-53.505497-5.868538-78.207251-16.437894-30.001404-12.814971-53.894737-38.504795-65.212632-69.045147-14.58152-39.343158-13.623392-82.369123-8.413567-123.389005 3.563041-23.174737 5.988304-47.337544 17.515789-68.236726 14.611462-26.438363 39.073684-46.020117 65.36234-60.06269 50.720936-26.857544 107.789474-38.654503 164.408888-44.942222 1.916257-20.150643 3.682807-40.331228 5.599065-60.481871 1.137778-14.491696 7.395556-29.222924 19.551813-37.816141m3.323508 37.816141c-2.36538 23.563977-4.072047 47.217778-6.587134 70.781754-0.149708 5.599064-3.802573 11.287953-9.760936 11.647252-55.481637 4.850526-111.592047 15.210292-161.803976 40.241403-30.031345 15.330058-59.014737 39.313216-67.787603 73.266901-7.754854 35.001637-12.455673 70.931462-10.689123 106.831345 1.556959 25.420351 7.814737 51.79883 24.072983 72.039298 15.689357 20.300351 39.522807 33.115322 64.314386 38.504795 49.912515 11.138246 101.471813 8.293801 152.102924 5.838597 9.341754 0.628772 9.910643 11.347836 10.000468 18.443976 1.257544 41.918129 3.293567 83.836257 4.521169 125.754386 0.38924 11.886784-2.545029 26.528187 7.515322 35.390878 14.641404 8.323743 34.133333-4.401404 34.283041-20.86924 1.527018-49.643041-0.718596-99.405848 1.018012-149.018947 3.563041-11.407719 17.72538-7.724912 26.58807-7.156024 55.152281 1.856374 111.831579-0.808421 164.259181-19.521871 26.618012-9.790877 53.984561-27.815673 61.499883-56.858948 9.431579-41.319298 13.533567-83.956023 10.509474-126.263391-2.75462-29.761871-8.802807-60.032749-24.372398-85.962106-9.730994-16.288187-25.450292-28.294737-43.025965-35.091462-38.355088-15.210292-80.15345-17.755322-120.963743-19.132631-19.012865-0.928187-38.025731 0.209591-57.008654 0.898245-6.317661 0.898246-13.59345-3.443275-13.623392-10.299883-0.269474-13.98269 1.347368-27.935439 1.766549-41.918128 0.718596-10.060351-0.59883-20.749474 4.491228-29.911579-5.209825-16.617544-24.552047-23.384327-40.091695-17.785263-8.203977 3.054035-10.419649 12.395789-11.228071 20.150643z" p-id="2059"></path><path fill="#FF0000" d="M537.120936 357.920936c37.396959-3.952281 75.272982-3.862456 112.699883-0.119766 18.923041 2.634854 39.19345 3.922339 55.421754 15.120467 18.833216 12.126316 29.133099 33.414737 34.612398 54.463626 7.275789 30.779883 6.856608 62.787368 3.203742 94.016374-1.467135 13.653333-2.545029 28.384561-11.467602 39.522807-14.641404 19.072749-38.20538 27.935439-60.631579 34.013568-42.037895 10.689123-85.842339 12.755088-129.018012 11.198128-7.635088 0.748538-14.162339-5.50924-13.773099-13.144327-3.263626-71.949474-1.047953-144.018713-0.179649-216.02807-0.149708-7.126082 0.239532-17.425965 9.132164-19.042807m14.19228 21.378245c-2.125848 68.146901-2.964211 136.413567-0.808421 204.59041 42.72655 0.359298 86.381287-0.329357 127.550878-13.114386 16.827135-5.748772 36.558596-15.479766 40.031812-34.821989 5.179883-35.420819 8.712982-72.368655-0.568889-107.460117-5.299649-19.970994-19.761404-39.343158-41.079766-43.355321-41.049825-8.563275-83.417076-8.353684-125.125614-5.838597zM435.888655 361.424094c9.281871-1.646784 18.593684-3.832515 28.085146-3.862457 6.407485 0.329357 11.407719 7.006316 9.790877 13.264094-4.970292 34.911813-3.263626 70.242807-3.054035 105.364211 0.958129 39.912047 1.97614 79.794152 3.413334 119.676257 0.98807 6.587135-4.012164 12.635322-10.569357 13.20421-47.517193 7.87462-96.082339 1.167719-142.731228-8.86269-26.348538-5.060117-41.828304-30.660117-48.714854-54.583392-11.61731-43.235556-1.018012-93.687018 30.869708-125.874152 35.959766-34.163275 85.363275-48.864561 132.910409-58.326081m-85.602807 51.559298c-18.144561 9.85076-35.360936 23.114854-45.511111 41.439064-14.162339 26.58807-20.689591 58.415906-12.725146 87.938246 4.52117 15.180351 14.401871 31.797895 31.258947 34.911813 41.708538 9.311813 85.003977 16.078596 127.700585 10.509473-1.676725-68.53614-5.179883-137.162105-1.527018-205.668304-34.193216 5.868538-68.446316 14.401871-99.196257 30.869708zM202.254971 912.258246c5.299649-1.137778 11.946667 1.616842 13.323976 7.185965 1.467135 9.042339-0.239532 19.282339 5.748772 27.007251 3.862456 5.988304 11.22807 8.084211 17.994854 8.174035 60.960936 0.239532 121.951813-0.269474 182.912749 0.209591 9.341754-1.437193 15.869006 10.389708 10.389707 17.755321-2.784561 4.371462-8.623158 4.970292-13.353918 4.850527-58.924912-0.029942-117.879766-0.089825-176.83462 0.029941-11.647251-0.119766-24.162807-1.76655-33.414737-9.551345-12.455673-10.150175-15.869006-27.426433-15.479766-42.72655-0.419181-5.599064 2.934269-11.767018 8.712983-12.934736zM458.614269 955.883041c10.689123-2.245614 21.917193-1.347368 32.785965-0.688655 11.677193 1.347368 11.557427 20.509942-0.179649 21.887251-10.030409 0.77848-20.180585 0.748538-30.151111-0.299415-9.790877-1.856374-11.467602-16.887018-2.455205-20.899181z" p-id="2060"></path></svg>